<svg xmlns="http://www.w3.org/2000/svg" viewBox="0 0 800 600" width="800" height="600" role="img" aria-label="Case study screenshot placeholder">
  <defs>
    <linearGradient id="bg" x1="0" y1="0" x2="0" y2="1">
      <stop offset="0%" stop-color="#f4f1ea"/>
      <stop offset="100%" stop-color="#e8e3d9"/>
    </linearGradient>
    <linearGradient id="content" x1="0" y1="0" x2="1" y2="1">
      <stop offset="0%" stop-color="#d7d0c1"/>
      <stop offset="100%" stop-color="#c9c2b4"/>
    </linearGradient>
  </defs>
  <rect width="800" height="600" rx="24" fill="url(#bg)"/>
  <rect x="0" y="0" width="800" height="48" rx="24" fill="#ece6da"/>
  <rect x="0" y="32" width="800" height="16" fill="#ece6da"/>
  <circle cx="28" cy="24" r="6" fill="#d7d0c1"/>
  <circle cx="52" cy="24" r="6" fill="#d7d0c1"/>
  <circle cx="76" cy="24" r="6" fill="#d7d0c1"/>
  <rect x="120" y="16" width="420" height="16" rx="8" fill="#d7d0c1"/>
  <rect x="60" y="100" width="260" height="28" rx="6" fill="url(#content)"/>
  <rect x="60" y="144" width="420" height="14" rx="4" fill="#d7d0c1"/>
  <rect x="60" y="168" width="380" height="14" rx="4" fill="#d7d0c1"/>
  <rect x="60" y="192" width="220" height="14" rx="4" fill="#d7d0c1"/>
  <rect x="60" y="250" width="160" height="44" rx="22" fill="#c9c2b4"/>
  <rect x="500" y="100" width="240" height="240" rx="18" fill="url(#content)"/>
  <rect x="60" y="380" width="680" height="160" rx="14" fill="#ece6da"/>
  <rect x="90" y="410" width="200" height="16" rx="4" fill="#d7d0c1"/>
  <rect x="90" y="438" width="280" height="12" rx="4" fill="#d7d0c1"/>
  <rect x="90" y="460" width="240" height="12" rx="4" fill="#d7d0c1"/>
  <rect x="500" y="410" width="200" height="16" rx="4" fill="#d7d0c1"/>
  <rect x="500" y="438" width="220" height="12" rx="4" fill="#d7d0c1"/>
</svg>
